<svg width="850" height="913" viewBox="0 0 850 913" fill="none" xmlns="http://www.w3.org/2000/svg">
<rect x="1" y="1" width="848" height="911" rx="0" fill="url(#paint0_linear_228_18)" stroke="#EFEFEF" stroke-width="2"/>
<g filter="url(#filter0_f_228_18)">
<rect x="568" y="729" width="63" height="61" rx="0" fill="#D9D9D9"/>
</g>
<g filter="url(#filter1_f_228_18)">
<rect x="618" y="640" width="54" height="50" rx="0" fill="#D9D9D9"/>
</g>
<g filter="url(#filter2_f_228_18)">
<rect x="482" y="576" width="55" height="50" rx="0" fill="#D9D9D9"/>
</g>
<g filter="url(#filter3_f_228_18)">
<rect x="646" y="551" width="36" height="34" fill="#D9D9D9"/>
</g>
<rect x="757" y="649" width="91" height="83" rx="0" fill="#D9D9D9"/>
<rect x="757.5" y="738.5" width="90" height="82" rx="0" fill="#D9D9D9" stroke="#D9D9D9"/>
<rect x="655" y="738" width="91" height="83" rx="0" fill="#D9D9D9"/>
<rect x="655" y="828" width="91" height="83" rx="0" fill="#D9D9D9"/>
<rect x="555" y="828" width="91" height="83" rx="0" fill="#D9D9D9"/>
<defs>
<filter id="filter0_f_228_18" x="566" y="727" width="67" height="65" filterUnits="userSpaceOnUse" color-interpolation-filters="sRGB">
<feFlood flood-opacity="0" result="BackgroundImageFix"/>
<feBlend mode="normal" in="SourceGraphic" in2="BackgroundImageFix" result="shape"/>
<feGaussianBlur stdDeviation="1" result="effect1_foregroundBlur_228_18"/>
</filter>
<filter id="filter1_f_228_18" x="613" y="635" width="64" height="60" filterUnits="userSpaceOnUse" color-interpolation-filters="sRGB">
<feFlood flood-opacity="0" result="BackgroundImageFix"/>
<feBlend mode="normal" in="SourceGraphic" in2="BackgroundImageFix" result="shape"/>
<feGaussianBlur stdDeviation="2.5" result="effect1_foregroundBlur_228_18"/>
</filter>
<filter id="filter2_f_228_18" x="477" y="571" width="65" height="60" filterUnits="userSpaceOnUse" color-interpolation-filters="sRGB">
<feFlood flood-opacity="0" result="BackgroundImageFix"/>
<feBlend mode="normal" in="SourceGraphic" in2="BackgroundImageFix" result="shape"/>
<feGaussianBlur stdDeviation="2.5" result="effect1_foregroundBlur_228_18"/>
</filter>
<filter id="filter3_f_228_18" x="638" y="543" width="52" height="50" filterUnits="userSpaceOnUse" color-interpolation-filters="sRGB">
<feFlood flood-opacity="0" result="BackgroundImageFix"/>
<feBlend mode="normal" in="SourceGraphic" in2="BackgroundImageFix" result="shape"/>
<feGaussianBlur stdDeviation="4" result="effect1_foregroundBlur_228_18"/>
</filter>
<linearGradient id="paint0_linear_228_18" x1="612.111" y1="425.684" x2="0.015314" y2="421.052" gradientUnits="userSpaceOnUse">
<stop stop-color="#A70368"/>
<stop offset="0.9" stop-color="#53023A"/>
</linearGradient>
</defs>
</svg>
